<?xml version="1.0" encoding="utf-8"?>
<!-- Generator: Adobe Illustrator 27.0.0, SVG Export Plug-In . SVG Version: 6.00 Build 0)  -->
<svg version="1.1" id="Layer_1" xmlns="http://www.w3.org/2000/svg" xmlns:xlink="http://www.w3.org/1999/xlink" x="0px" y="0px"
	 viewBox="0 0 354 96" style="enable-background:new 0 0 354 96;" xml:space="preserve">
<style type="text/css">
	.st0{fill-rule:evenodd;clip-rule:evenodd;fill:#FFFFFF;}
	.st1{fill:#FFFFFF;}
</style>
<path class="st0" d="M0.1,28.5c0-3.1,1.7-6,4.5-7.5L40.2,1.1c2.7-1.5,5.9-1.5,8.6,0l35.6,19.8c2.8,1.5,4.5,4.4,4.5,7.5v39
	c0,3.2-1.7,6.1-4.6,7.6L48.7,94.3c-2.6,1.4-5.8,1.4-8.4,0L4.7,75c-2.8-1.5-4.6-4.4-4.6-7.6V28.5z M44.5,21.9l-21.7,13v13v13
	l21.7,12.7l21.7-12.7v-13v-13L44.5,21.9z"/>
<path class="st1" d="M169.1,47.4c2.6,0.9,4.6,2.3,6.1,4.2c1.5,1.9,2.2,4.2,2.2,6.9c0,3.9-1.6,7-4.8,9.1c-3.2,2.1-7.8,3.2-13.8,3.2
	h-24.4v-45h23.1c5.8,0,10.1,1.1,13.2,3.2c3,2.1,4.5,5,4.5,8.6c0,2.1-0.5,4.1-1.6,5.8C172.6,45.1,171.1,46.4,169.1,47.4z M147.1,35
	v8.7h8.8c4.3,0,6.4-1.5,6.4-4.4c0-2.9-2.1-4.3-6.4-4.3H147.1z M157.8,61.7c4.5,0,6.7-1.5,6.7-4.6c0-3-2.2-4.6-6.7-4.6h-10.7v9.1
	H157.8z"/>
<path class="st1" d="M204.6,25.8h12.8v45h-12.8V25.8z"/>
<path class="st1" d="M271.3,54.7v16.1h-12.8V54.5l-17.2-28.7h13.5l10.7,17.9l10.7-17.9h12.4L271.3,54.7z"/>
<path class="st1" d="M332.7,71.8c-6.7,0-11.9-1.8-15.7-5.5c-3.7-3.6-5.5-8.8-5.5-15.5v-25h12.8v24.6c0,7.2,2.9,10.8,8.6,10.8
	c5.7,0,8.5-3.6,8.5-10.8V25.8h12.6v25c0,6.7-1.9,11.9-5.6,15.5C344.6,69.9,339.4,71.8,332.7,71.8z"/>
</svg>
