<svg width="98" height="24" viewBox="0 0 98 24" fill="none" xmlns="http://www.w3.org/2000/svg">
<g>
<path d="M9.61726 23.5206C14.3063 23.5206 17.7342 19.7694 17.7342 15.048C17.7342 10.3266 14.7267 6.57531 9.77895 6.57531C7.77397 6.57531 5.89834 7.51313 4.7665 8.67731V0.0106201H0.98291V23.1326H4.28142L4.70182 21.4186C5.57496 22.5181 7.51526 23.5206 9.61726 23.5206ZM9.09984 20.0928C6.35108 20.0928 4.3461 17.9261 4.3461 15.048C4.3461 12.1699 6.51277 10.0032 9.26154 10.0032C12.0103 10.0032 13.8859 12.1699 13.8859 15.048C13.8859 17.9261 11.7839 20.0928 9.09984 20.0928Z" fill="#F2EBE0"/>
<path d="M20.0513 23.1324H23.8349V14.6598C23.8349 12.008 25.0961 10.4881 27.2627 10.4881C27.9095 10.4881 28.718 10.6498 29.2677 10.7792L30.0438 6.89858C29.4294 6.70455 28.718 6.5752 27.8772 6.5752C26.2279 6.5752 24.708 7.44833 23.7702 9.03291L23.3498 6.96325H20.0513V23.1324Z" fill="#F2EBE0"/>
<path d="M38.6653 23.5205C42.2225 23.5205 44.939 21.7096 46.1355 19.0255L42.9663 17.6349C41.9962 19.2842 40.8643 20.0926 38.9887 20.0926C36.4016 20.0926 34.5583 18.5727 34.429 16.1797H46.5559C46.6205 15.7916 46.6529 15.1449 46.6529 14.7245C46.6529 10.0031 43.6454 6.5752 38.6976 6.5752C33.7499 6.5752 30.6777 10.3264 30.6777 15.0478C30.6777 19.7693 33.7175 23.5205 38.6653 23.5205ZM34.429 13.3339C34.5907 11.426 36.434 10.0031 38.73 10.0031C41.026 10.0031 42.7076 11.3613 42.837 13.3339H34.429Z" fill="#F2EBE0"/>
<path d="M56.9104 23.5205C60.4677 23.5205 63.1841 21.7096 64.3806 19.0255L61.2114 17.6349C60.2413 19.2842 59.1094 20.0926 57.2338 20.0926C54.6467 20.0926 52.8035 18.5727 52.6741 16.1797H64.801C64.8657 15.7916 64.898 15.1449 64.898 14.7245C64.898 10.0031 61.8905 6.5752 56.9428 6.5752C51.995 6.5752 48.9229 10.3264 48.9229 15.0478C48.9229 19.7693 51.9627 23.5205 56.9104 23.5205ZM52.6741 13.3339C52.8358 11.426 54.6791 10.0031 56.9751 10.0031C59.2711 10.0031 60.9527 11.3613 61.0821 13.3339H52.6741Z" fill="#F2EBE0"/>
<path d="M66.8789 23.1326H79.7496V19.7047H71.6003L79.5232 10.0679V6.96338H67.5257V10.3912H74.7371L66.8789 20.0281V23.1326Z" fill="#F2EBE0"/>
<path d="M89.0291 23.5205C92.5863 23.5205 95.3027 21.7096 96.4992 19.0255L93.3301 17.6349C92.3599 19.2842 91.2281 20.0926 89.3525 20.0926C86.7654 20.0926 84.9221 18.5727 84.7928 16.1797H96.9196C96.9843 15.7916 97.0167 15.1449 97.0167 14.7245C97.0167 10.0031 94.0092 6.5752 89.0614 6.5752C84.1136 6.5752 81.0415 10.3264 81.0415 15.0478C81.0415 19.7693 84.0813 23.5205 89.0291 23.5205ZM84.7928 13.3339C84.9544 11.426 86.7977 10.0031 89.0938 10.0031C91.3898 10.0031 93.0714 11.3613 93.2007 13.3339H84.7928Z" fill="#F2EBE0"/>
</g>
<defs>
<clipPath id="clip0_209_370">
<rect width="96.0337" height="23.51" fill="white" transform="translate(0.98291 0.0106201)"/>
</clipPath>
</defs>
</svg>
