<svg width="2430" height="437" viewBox="0 0 2430 437" fill="none" xmlns="http://www.w3.org/2000/svg">
<g clip-path="url(#clip0_198_330)">
<path d="M46.4705 390.63C16.6205 360.98 -0.109461 320.61 0.000539025 278.53C-0.109461 236.45 16.6205 196.08 46.4705 166.43L143.171 69.7998L216.101 142.66L119.391 239.29C108.941 249.67 103.091 263.8 103.131 278.52C103.091 293.25 108.951 307.37 119.391 317.75C141.101 339.38 176.211 339.38 197.921 317.75L294.251 221.49L250.491 177.76L358.891 69.4498C420.911 7.63979 521.251 7.63979 583.271 69.4498C645.131 131.38 645.131 231.71 583.271 293.65L474.871 401.96L401.941 329.09L510.341 220.78C531.991 199.11 531.991 163.99 510.341 142.32C488.631 120.69 453.521 120.69 431.811 142.32L323.781 250.26L367.541 293.99L270.831 390.62C241.081 420.37 200.711 437.05 158.641 436.98C116.571 437.06 76.2005 420.37 46.4505 390.62L46.4705 390.63Z" fill="#F7F9F0"/>
<path d="M2386.43 161.41C2382.09 158.89 2378.66 155.49 2376.12 151.19C2373.58 146.89 2372.31 142.18 2372.31 137.06C2372.31 131.94 2373.58 127.26 2376.12 122.96C2378.66 118.66 2382.1 115.25 2386.45 112.74C2390.8 110.23 2395.54 108.97 2400.69 108.97C2405.84 108.97 2410.58 110.23 2414.93 112.74C2419.28 115.26 2422.72 118.66 2425.26 122.96C2427.8 127.26 2429.06 131.96 2429.06 137.06C2429.06 142.16 2427.79 146.89 2425.26 151.19C2422.72 155.49 2419.29 158.9 2414.95 161.41C2410.61 163.92 2405.86 165.18 2400.69 165.18C2395.52 165.18 2390.77 163.92 2386.43 161.41ZM2412.12 156.97C2415.59 154.93 2418.34 152.14 2420.37 148.61C2422.4 145.08 2423.41 141.23 2423.41 137.05C2423.41 132.87 2422.4 129.03 2420.37 125.53C2418.34 122.03 2415.59 119.25 2412.12 117.19C2408.65 115.14 2404.86 114.11 2400.72 114.11C2396.58 114.11 2392.79 115.14 2389.32 117.19C2385.85 119.24 2383.1 122.02 2381.06 125.53C2379.02 129.04 2378 132.87 2378 137.05C2378 141.23 2379.02 145.08 2381.04 148.61C2383.07 152.14 2385.82 154.92 2389.3 156.97C2392.78 159.01 2396.58 160.03 2400.72 160.03C2404.86 160.03 2408.65 159.01 2412.12 156.97ZM2391.77 121.4H2402.9C2404.54 121.4 2406.03 121.77 2407.36 122.5C2408.69 123.24 2409.73 124.24 2410.49 125.51C2411.25 126.78 2411.63 128.22 2411.63 129.84C2411.63 131.34 2411.27 132.7 2410.56 133.94C2409.85 135.17 2408.86 136.15 2407.61 136.89C2406.35 137.63 2404.96 138.02 2403.44 138.07H2402.57L2414.2 151.44H2407.43L2396.41 137.96H2396.88V151.44H2391.77V121.4ZM2404.42 133.27C2405.05 132.97 2405.54 132.53 2405.89 131.95C2406.24 131.37 2406.41 130.69 2406.41 129.92C2406.41 129.15 2406.24 128.52 2405.9 127.96C2405.56 127.4 2405.09 126.98 2404.47 126.69C2403.85 126.4 2403.12 126.25 2402.28 126.25H2396.88V133.71H2402.17C2403.04 133.71 2403.79 133.56 2404.42 133.26V133.27Z" fill="#F9F9F9"/>
<path d="M990.19 120.63V378.37H944.65V340.54C937.34 352.08 928.27 361.37 917.44 368.4C902.92 377.84 886.46 382.56 868.08 382.56C852 382.56 837.07 378.99 823.28 371.85C809.49 364.71 798.42 353.8 790.05 339.11C781.68 324.42 777.49 306.33 777.49 284.83V120.63H826.73V271.78C826.73 285.4 828.86 297.06 833.13 306.73C837.39 316.42 843.5 323.85 851.47 329.02C859.43 334.18 868.9 336.77 879.9 336.77C890.9 336.77 900.86 334.06 910.3 328.65C919.74 323.23 927.25 315.31 932.83 304.89C938.41 294.47 941.2 282.12 941.2 267.84V120.63H990.19Z" fill="#F9F9F9"/>
<path d="M1265.55 211.71V378.37H1216.32V224.76C1216.32 211.47 1214.14 199.89 1209.79 190.05C1205.44 180.2 1199.21 172.74 1191.08 167.65C1182.96 162.56 1173.4 160.02 1162.4 160.02C1151.4 160.02 1141.31 162.69 1132.12 168.02C1122.93 173.35 1115.59 181.27 1110.09 191.77C1104.59 202.28 1101.84 214.67 1101.84 228.95V378.37H1052.85V120.63H1098.15V157.31H1098.74C1106.48 144.67 1116.05 134.79 1127.45 127.64C1141.72 118.7 1157.48 114.22 1174.71 114.22C1190.96 114.22 1205.98 117.84 1219.76 125.06C1233.55 132.28 1244.63 143.19 1253 157.8C1261.37 172.41 1265.55 190.38 1265.55 211.71Z" fill="#F9F9F9"/>
<path d="M1364.9 366.31C1346.03 355.32 1330.84 339.56 1319.36 319.04C1307.87 298.53 1302.13 274.89 1302.13 248.14C1302.13 221.39 1307.63 198.33 1318.62 177.98C1329.61 157.63 1344.47 141.91 1363.18 130.84C1381.89 119.76 1402.65 114.22 1425.46 114.22C1446.47 114.22 1465.13 118.25 1481.47 126.29C1497.8 134.33 1510.93 145.66 1520.86 160.26C1530.79 174.87 1536.74 191.69 1538.71 210.73L1492.43 218.85C1490.95 207.2 1487.22 196.78 1481.23 187.59C1475.24 178.4 1467.52 171.26 1458.09 166.17C1448.65 161.08 1438.11 158.54 1426.46 158.54C1412.02 158.54 1399.14 162.36 1387.81 169.99C1376.49 177.62 1367.66 188.08 1361.35 201.38C1355.03 214.67 1351.87 229.36 1351.87 245.44C1351.87 264.32 1355.11 280.73 1361.59 294.68C1368.07 308.63 1377.05 319.3 1388.55 326.68C1400.04 334.06 1413.08 337.76 1427.69 337.76C1439.34 337.76 1450.01 335.14 1459.69 329.88C1469.37 324.63 1477.25 317.29 1483.32 307.85C1489.39 298.41 1493 287.78 1494.15 275.97L1540.92 285.33C1539.28 303.71 1533.2 320.37 1522.7 335.3C1512.19 350.24 1498.49 361.89 1481.59 370.26C1464.69 378.63 1446.06 382.81 1425.71 382.81C1404.05 382.81 1383.77 377.31 1364.9 366.32V366.31Z" fill="#F9F9F9"/>
<path d="M1621.68 364.1C1602.89 351.63 1588.45 335.17 1578.35 314.74C1568.25 294.31 1563.21 272.11 1563.21 248.15C1563.21 224.19 1568.26 202.45 1578.35 181.93C1588.44 161.42 1602.88 145 1621.68 132.69C1640.47 120.38 1662.09 114.23 1686.55 114.23C1711.01 114.23 1732.63 120.39 1751.42 132.69C1770.21 145 1784.69 161.41 1794.87 181.93C1805.04 202.45 1810.13 224.52 1810.13 248.15C1810.13 271.78 1805.04 294.11 1794.87 314.62C1784.69 335.14 1770.21 351.63 1751.42 364.1C1732.63 376.57 1711 382.81 1686.55 382.81C1662.1 382.81 1640.47 376.58 1621.68 364.1ZM1725.32 326.06C1736.56 317.94 1745.22 307.02 1751.29 293.32C1757.36 279.62 1760.4 264.56 1760.4 248.15C1760.4 231.74 1757.36 217.18 1751.29 203.47C1745.22 189.77 1736.56 178.85 1725.32 170.73C1714.08 162.6 1701.15 158.54 1686.55 158.54C1671.95 158.54 1659.26 162.6 1648.02 170.73C1636.78 178.85 1628.12 189.77 1622.05 203.47C1615.98 217.18 1612.94 232.07 1612.94 248.15C1612.94 264.23 1615.97 279.62 1622.05 293.32C1628.12 307.03 1636.78 317.94 1648.02 326.06C1659.26 334.18 1672.1 338.24 1686.55 338.24C1701 338.24 1714.08 334.18 1725.32 326.06Z" fill="#F9F9F9"/>
<path d="M2026.69 156.57C2026.93 156.88 2027.16 157.2 2027.39 157.52V156.57H2026.69Z" fill="#F9F9F9"/>
<path d="M2027.39 0V157.52C2027.16 157.2 2026.93 156.88 2026.69 156.57C2020.28 147.87 2012.8 140.2 2004.25 133.55C1987.67 120.67 1968.06 114.22 1945.42 114.22C1924.9 114.22 1906.35 119.36 1889.78 129.61C1873.2 139.87 1859.99 155.09 1850.14 175.28C1840.3 195.47 1835.37 219.67 1835.37 247.9C1835.37 276.13 1840.3 300.62 1850.14 320.89C1859.99 341.16 1873.2 356.46 1889.78 366.8C1906.35 377.14 1924.9 382.31 1945.42 382.31C1968.06 382.31 1987.67 375.79 2004.25 362.74C2014.33 354.8 2022.92 345.49 2030.03 334.8H2030.84V378.37H2076.63V0H2027.39ZM2018.9 294.55C2013.24 308.42 2004.95 319.37 1994.03 327.41C1983.12 335.46 1970.28 339.48 1955.51 339.48C1940.74 339.48 1928.31 335.46 1917.72 327.41C1907.13 319.37 1899.09 308.42 1893.59 294.55C1888.1 280.68 1885.35 265.3 1885.35 248.39C1885.35 231.48 1888.14 216.11 1893.72 202.24C1899.3 188.37 1907.34 177.46 1917.84 169.49C1928.35 161.53 1940.9 157.55 1955.51 157.55C1970.12 157.55 1983.12 161.53 1994.03 169.49C2004.95 177.46 2013.24 188.32 2018.9 202.11C2024.56 215.9 2027.39 231.33 2027.39 248.39C2027.39 265.45 2024.56 280.68 2018.9 294.55Z" fill="#F9F9F9"/>
<path d="M2356.67 240.02C2356.67 214.09 2351.66 191.65 2341.65 172.69C2331.64 153.74 2318.02 139.26 2300.79 129.24C2283.55 119.24 2264.35 114.22 2243.18 114.22C2220.36 114.22 2199.56 119.76 2180.77 130.84C2161.98 141.92 2147.09 157.67 2136.09 178.11C2125.1 198.54 2119.6 221.97 2119.6 248.39C2119.6 274.81 2125.26 298.94 2136.59 319.29C2147.91 339.64 2163.05 355.32 2182.01 366.31C2200.96 377.31 2221.27 382.8 2242.93 382.8C2260.99 382.8 2277.73 379.52 2293.15 372.96C2308.58 366.4 2321.67 357.29 2332.42 345.63C2343.17 333.98 2350.59 320.52 2354.7 305.26L2311.86 289.75C2308.74 299.76 2304.07 308.46 2297.83 315.85C2291.59 323.23 2283.88 329.02 2274.69 333.2C2265.5 337.38 2255.32 339.48 2244.17 339.48C2230.87 339.48 2218.44 336.07 2206.87 329.26C2195.3 322.45 2185.9 312.24 2178.68 298.61C2172.64 287.21 2169.13 273.92 2168.14 258.73H2355.68C2356.34 252.99 2356.67 246.75 2356.67 240.02ZM2169.21 221.31C2170.78 211.39 2173.74 202.36 2178.07 194.23C2184.87 181.43 2193.98 171.63 2205.39 164.82C2216.8 158.01 2229.31 154.6 2242.93 154.6C2255.08 154.6 2266.24 157.64 2276.41 163.71C2286.59 169.78 2294.67 178.69 2300.66 190.42C2305.26 199.43 2308.1 209.72 2309.16 221.31H2169.21Z" fill="#F9F9F9"/>
</g>
<defs>
<clipPath id="clip0_198_330">
<rect width="2429.06" height="436.99" fill="white"/>
</clipPath>
</defs>
</svg>
