<svg width="500" height="500" viewBox="0 0 500 500" fill="none" xmlns="http://www.w3.org/2000/svg">
<circle cx="250" cy="250" r="250" fill="#FCEDD2"/>
<path fill-rule="evenodd" d="M223.063 74.2408C224.022 78.222 225.816 84.2253 227.046 87.5771C230.476 96.9164 230.075 97.5247 218.14 101.106C162.953 117.659 127.009 165.48 127.009 222.348C127.009 260.011 141.168 291.289 168.303 313.564C186.773 328.728 207.178 336.058 235.186 337.591L258.133 338.847V360.488V382.128L246.987 385.406C240.856 387.21 231.022 391.478 225.132 394.893C212.24 402.368 193.825 422.15 196.914 425.205C204.747 432.94 282.331 434.599 313.205 427.69C319.696 426.237 327.663 424.444 330.907 423.704C339.078 421.84 338.286 416.982 328.284 407.59C317.17 397.155 304.089 389.532 290.258 385.433L279.113 382.128V359.053V335.977L288.467 332.878C299.293 329.291 298.362 328.76 303.617 341.493C305.859 346.925 308.933 351.367 310.449 351.367C314.217 351.367 314.047 350.274 306.615 326.911C303.027 315.631 300.093 304.765 300.093 302.758C300.093 300.755 304.231 297.743 309.29 296.068C324.12 291.155 345.438 269.601 354.103 250.761C360.73 236.351 361.721 231.109 361.721 210.445C361.721 188.93 360.91 185.039 353.135 169.18C335.061 132.317 306.106 115.358 264.954 117.528L243.389 118.665L235.96 92.8326C231.2 76.2893 227.232 67 224.925 67C222.315 67 221.801 69.0037 223.063 74.2408ZM234.287 112.188C235.876 116.767 236.875 120.74 236.511 121.014C236.143 121.288 228.987 124.616 220.608 128.41C199.953 137.763 179.078 159.474 171.544 179.438C163.726 200.152 163.69 228.647 171.452 249.211C178.882 268.895 196.772 288.611 215.641 297.916C229.391 304.694 233.125 305.305 261.928 305.478L293.261 305.671L295.296 313.314C296.416 317.519 296.479 321.816 295.435 322.862C291.349 326.956 261.401 332.933 245.125 332.904C211.998 332.843 184.137 321.448 163.469 299.507C106.905 239.458 134.517 136.472 214.634 108.665C231.856 102.688 230.93 102.52 234.287 112.188ZM331.636 147.794C342.152 159.817 351.863 180.46 354.124 195.584C355.802 206.824 355.55 207.324 340.502 222.591C327.122 236.164 323.897 238.147 315.172 238.147C302.238 238.147 299.956 232.567 307.506 219.4C315.898 204.757 315.067 196.75 304.682 192.187C299.996 190.126 292.873 187.743 288.858 186.892C284.735 186.015 280.343 182.666 278.769 179.196C274.007 168.701 281.657 158.379 301.991 147.868C311.765 142.815 320.524 138.55 321.455 138.387C322.389 138.223 326.97 142.457 331.636 147.794ZM215.838 177.864C233.17 183.93 233.812 198.438 217.485 215.068C210.994 221.677 205.683 229.489 205.683 232.425C205.683 238.044 217.028 248.679 223.023 248.679C224.959 248.679 228.444 251.594 230.767 255.153C235.928 263.06 234.129 273.442 225.779 283.956C218.277 293.403 212.948 292.053 198.036 276.934C183.613 262.305 174.654 243.302 172.53 222.822L170.807 206.184L186.196 190.568C202.778 173.745 203.357 173.495 215.838 177.864ZM189.949 178.411C189.949 178.864 186.114 182.716 181.425 186.969L172.902 194.702L180.605 186.144C187.785 178.169 189.949 176.376 189.949 178.411ZM179.459 212.962C179.459 226.332 183.55 239.174 187.103 236.967C188.559 236.064 188.493 231.762 186.938 226.106C185.522 220.953 185.123 213.262 186.052 209.012C187.365 203.009 186.817 201.284 183.6 201.284C180.45 201.284 179.459 204.075 179.459 212.962ZM345.939 230.295C340.332 236.061 334.557 240.78 333.107 240.78C331.657 240.78 335.659 235.472 341.997 228.986C348.338 222.499 354.113 217.783 354.832 218.502C355.548 219.223 351.546 224.529 345.939 230.295ZM352.542 233.739C352.542 234.21 349.298 237.467 345.33 240.98L338.119 247.362L344.475 240.121C350.418 233.355 352.542 231.672 352.542 233.739ZM190.352 250.132C190.853 252.713 192.846 255.356 194.79 256.004C197.045 256.76 197.989 255.493 197.412 252.491C196.911 249.911 194.918 247.267 192.975 246.62C190.72 245.864 189.775 247.131 190.352 250.132ZM322.14 270.012C316.583 276.178 304.797 282.908 299.568 282.905C297.693 282.905 301.102 280.446 307.144 277.445C313.189 274.44 319.528 270.293 321.235 268.229C322.942 266.165 324.967 264.477 325.733 264.477C326.501 264.477 324.885 266.968 322.14 270.012ZM93.9318 313.846C89.9797 326.477 87.0242 330.919 79.836 335.031L72 339.518L81.3177 347.417C88.498 353.505 90.9789 357.907 92.1354 366.607C94.0734 381.209 99.0456 379.632 100.887 363.826C102.423 350.643 109.265 340.835 116.926 340.835C123.713 340.835 122.96 335.895 115.756 333.144C108.13 330.234 104.301 325.584 102.022 316.463C99.9713 308.261 96.0743 307 93.9318 313.846ZM103.582 331.78C107.841 335.648 107.739 336.287 101.81 342.709C95.6888 349.342 95.3715 349.397 90.242 344.737L84.9682 339.945L90.7114 333.807C97.5167 326.532 97.7658 326.493 103.582 331.78ZM271.245 368.481C271.245 393.643 271.911 398.761 275.179 398.761C277.343 398.761 279.113 396.984 279.113 394.812C279.113 392.595 281.455 390.862 284.444 390.862C291.719 390.862 316.365 403.656 314.603 406.518C313.129 408.914 285.509 413.972 267.312 415.181C261.387 415.573 257.393 417.021 258.133 418.509C259.861 421.982 286.618 420.452 307.53 415.684C323.422 412.063 330.503 412.524 327.747 417C325.567 420.539 287.124 425.642 260.855 425.881C232.325 426.139 204.975 423.106 206.945 419.904C207.679 418.714 212.709 418.775 218.127 420.036C230.92 423.019 247.643 423.093 247.643 420.165C247.643 418.904 240.599 417.071 231.987 416.094C223.377 415.115 215.728 413.33 214.985 412.126C214.243 410.921 218.043 407.087 223.427 403.606C243.02 390.944 258.133 387.113 258.133 394.812C258.133 396.984 259.153 398.761 260.399 398.761C263.375 398.761 266 378.853 266 356.264C266 345.977 267.131 338.202 268.623 338.202C270.22 338.202 271.245 350.05 271.245 368.481Z" fill="#352F81"/>
</svg>
